<svg width="902" height="154" viewBox="0 0 902 154" fill="none" xmlns="http://www.w3.org/2000/svg">
<path d="M596 1H27L1 27.2463V112H476L502 84.1133H580L596 64.4286V1Z" stroke="black"/>
<path d="M596 112L615.5 88.0151H689.5L707.5 63.4724V1H901V88.0151L871.5 112H596Z" fill="black" stroke="black"/>
<path d="M691.061 47.0607C691.646 46.4749 691.646 45.5251 691.061 44.9393L681.515 35.3934C680.929 34.8076 679.979 34.8076 679.393 35.3934C678.808 35.9792 678.808 36.9289 679.393 37.5147L687.879 46L679.393 54.4853C678.808 55.0711 678.808 56.0208 679.393 56.6066C679.979 57.1924 680.929 57.1924 681.515 56.6066L691.061 47.0607ZM614 47.5H690V44.5H614V47.5Z" fill="black"/>
<path d="M30.624 125.536C31.5627 125.536 32.3627 125.557 33.024 125.6C33.7067 125.643 34.3253 125.717 34.88 125.824C35.456 125.909 36.0427 126.027 36.64 126.176L36.352 128.32C35.712 128.256 35.1147 128.203 34.56 128.16C34.0267 128.117 33.4507 128.085 32.832 128.064C32.2133 128.043 31.4773 128.032 30.624 128.032C29.1947 128.032 28.064 128.309 27.232 128.864C26.4 129.419 25.8027 130.347 25.44 131.648C25.0987 132.949 24.928 134.72 24.928 136.96C24.928 139.2 25.0987 140.971 25.44 142.272C25.8027 143.573 26.4 144.501 27.232 145.056C28.064 145.611 29.1947 145.888 30.624 145.888C31.9893 145.888 33.1307 145.867 34.048 145.824C34.9867 145.76 35.904 145.664 36.8 145.536L37.088 147.648C36.1707 147.904 35.2213 148.085 34.24 148.192C33.28 148.32 32.0747 148.384 30.624 148.384C28.512 148.384 26.816 148.021 25.536 147.296C24.2773 146.549 23.36 145.344 22.784 143.68C22.2293 142.016 21.952 139.776 21.952 136.96C21.952 134.144 22.2293 131.904 22.784 130.24C23.36 128.576 24.2773 127.381 25.536 126.656C26.816 125.909 28.512 125.536 30.624 125.536ZM48.106 132.032C49.258 132.032 50.2287 132.192 51.018 132.512C51.8287 132.811 52.4367 133.323 52.842 134.048C53.2473 134.773 53.45 135.765 53.45 137.024V148H51.306L50.89 144.608L50.698 144.256V137.024C50.698 136.064 50.474 135.381 50.026 134.976C49.5993 134.549 48.7673 134.336 47.53 134.336C46.7193 134.336 45.6953 134.379 44.458 134.464C43.242 134.549 42.0367 134.645 40.842 134.752L40.586 132.736C41.3113 132.608 42.1007 132.491 42.954 132.384C43.8287 132.277 44.714 132.192 45.61 132.128C46.506 132.064 47.338 132.032 48.106 132.032ZM52.17 138.4L52.138 140.448L44.682 140.48C43.9353 140.501 43.4127 140.704 43.114 141.088C42.8153 141.451 42.666 141.963 42.666 142.624V143.616C42.666 144.427 42.858 145.024 43.242 145.408C43.626 145.771 44.2447 145.952 45.098 145.952C45.6953 145.952 46.3673 145.845 47.114 145.632C47.882 145.397 48.65 145.045 49.418 144.576C50.186 144.107 50.89 143.509 51.53 142.784V144.8C51.2953 145.099 50.954 145.451 50.506 145.856C50.0793 146.24 49.5567 146.624 48.938 147.008C48.3407 147.371 47.6687 147.68 46.922 147.936C46.1967 148.171 45.4073 148.288 44.554 148.288C43.6367 148.288 42.826 148.128 42.122 147.808C41.418 147.467 40.8633 146.976 40.458 146.336C40.074 145.675 39.882 144.875 39.882 143.936V142.24C39.882 141.024 40.2553 140.085 41.002 139.424C41.77 138.741 42.8367 138.4 44.202 138.4H52.17ZM50.218 124.288L51.786 126.4L45.642 130.24L44.714 128.992L50.218 124.288ZM64.9645 132.032C65.4338 132.032 65.9565 132.053 66.5325 132.096C67.1085 132.139 67.6952 132.213 68.2925 132.32C68.9112 132.427 69.4765 132.576 69.9885 132.768L69.6365 134.528C68.9325 134.464 68.1858 134.421 67.3965 134.4C66.6285 134.357 65.9672 134.336 65.4125 134.336C64.1752 134.336 63.1938 134.507 62.4685 134.848C61.7432 135.189 61.2205 135.787 60.9005 136.64C60.5805 137.493 60.4205 138.677 60.4205 140.192C60.4205 141.707 60.5805 142.901 60.9005 143.776C61.2205 144.629 61.7432 145.227 62.4685 145.568C63.1938 145.909 64.1752 146.08 65.4125 146.08C65.7325 146.08 66.1485 146.069 66.6605 146.048C67.1725 146.027 67.7165 145.995 68.2925 145.952C68.8898 145.909 69.4552 145.845 69.9885 145.76L70.2765 147.584C69.4872 147.861 68.6232 148.064 67.6845 148.192C66.7672 148.32 65.8498 148.384 64.9325 148.384C63.1405 148.384 61.7005 148.117 60.6125 147.584C59.5245 147.051 58.7352 146.187 58.2445 144.992C57.7752 143.797 57.5405 142.197 57.5405 140.192C57.5405 138.187 57.7858 136.587 58.2765 135.392C58.7672 134.197 59.5565 133.344 60.6445 132.832C61.7325 132.299 63.1725 132.032 64.9645 132.032ZM89.4738 132.032C91.3938 132.032 92.8124 132.661 93.7298 133.92C94.6471 135.157 95.1058 137.237 95.1058 140.16C95.1058 141.504 94.9884 142.688 94.7537 143.712C94.5404 144.736 94.1671 145.6 93.6338 146.304C93.1218 146.987 92.4178 147.509 91.5218 147.872C90.6471 148.213 89.5378 148.384 88.1938 148.384C87.6604 148.384 87.0844 148.363 86.4658 148.32C85.8471 148.277 85.2178 148.203 84.5778 148.096C83.9378 148.011 83.3084 147.904 82.6898 147.776C82.0924 147.627 81.5378 147.456 81.0258 147.264L83.2018 145.408C83.7778 145.579 84.3431 145.717 84.8978 145.824C85.4738 145.931 86.0284 146.005 86.5618 146.048C87.1164 146.069 87.6391 146.08 88.1298 146.08C89.1324 146.059 89.9324 145.867 90.5298 145.504C91.1484 145.141 91.5964 144.533 91.8738 143.68C92.1511 142.805 92.2898 141.632 92.2898 140.16C92.2898 138.731 92.1831 137.6 91.9698 136.768C91.7564 135.915 91.3724 135.307 90.8178 134.944C90.2844 134.581 89.5164 134.4 88.5138 134.4C87.6604 134.4 86.8498 134.635 86.0818 135.104C85.3138 135.552 84.4284 136.171 83.4258 136.96L83.2338 135.136C83.8738 134.453 84.5244 133.888 85.1858 133.44C85.8684 132.971 86.5724 132.619 87.2978 132.384C88.0231 132.149 88.7484 132.032 89.4738 132.032ZM83.7458 125.6V131.424C83.7458 132.085 83.7244 132.693 83.6818 133.248C83.6604 133.803 83.5858 134.368 83.4578 134.944L83.7138 135.392L83.7458 147.392L81.0258 147.264V125.6H83.7458ZM106.7 132.032C107.852 132.032 108.822 132.192 109.612 132.512C110.422 132.811 111.03 133.323 111.436 134.048C111.841 134.773 112.044 135.765 112.044 137.024V148H109.9L109.484 144.608L109.292 144.256V137.024C109.292 136.064 109.068 135.381 108.62 134.976C108.193 134.549 107.361 134.336 106.124 134.336C105.313 134.336 104.289 134.379 103.052 134.464C101.836 134.549 100.63 134.645 99.4358 134.752L99.1798 132.736C99.9051 132.608 100.694 132.491 101.548 132.384C102.422 132.277 103.308 132.192 104.204 132.128C105.1 132.064 105.932 132.032 106.7 132.032ZM110.764 138.4L110.732 140.448L103.276 140.48C102.529 140.501 102.006 140.704 101.708 141.088C101.409 141.451 101.26 141.963 101.26 142.624V143.616C101.26 144.427 101.452 145.024 101.836 145.408C102.22 145.771 102.838 145.952 103.692 145.952C104.289 145.952 104.961 145.845 105.708 145.632C106.476 145.397 107.244 145.045 108.012 144.576C108.78 144.107 109.484 143.509 110.124 142.784V144.8C109.889 145.099 109.548 145.451 109.1 145.856C108.673 146.24 108.15 146.624 107.532 147.008C106.934 147.371 106.262 147.68 105.516 147.936C104.79 148.171 104.001 148.288 103.148 148.288C102.23 148.288 101.42 148.128 100.716 147.808C100.012 147.467 99.4571 146.976 99.0518 146.336C98.6678 145.675 98.4758 144.875 98.4758 143.936V142.24C98.4758 141.024 98.8491 140.085 99.5958 139.424C100.364 138.741 101.43 138.4 102.796 138.4H110.764ZM105.74 150.048C106.294 150.048 106.572 150.315 106.572 150.848V152.672C106.572 153.227 106.294 153.504 105.74 153.504H104.844C104.289 153.504 104.012 153.227 104.012 152.672V150.848C104.012 150.315 104.289 150.048 104.844 150.048H105.74ZM126.374 132.032C129.19 132.032 130.598 133.461 130.598 136.32V148H127.878V137.088C127.878 136.043 127.708 135.328 127.366 134.944C127.025 134.539 126.449 134.336 125.638 134.336C124.678 134.336 123.718 134.571 122.758 135.04C121.798 135.509 120.657 136.149 119.334 136.96L119.206 135.008C120.422 134.069 121.628 133.344 122.822 132.832C124.017 132.299 125.201 132.032 126.374 132.032ZM119.206 132.416L119.43 135.392L119.622 135.872V148H116.902V132.416H119.206ZM145.963 127.808V143.712C145.963 144.459 146.123 144.992 146.443 145.312C146.763 145.632 147.307 145.792 148.075 145.792H150.443L150.763 147.872C150.421 147.957 150.027 148.032 149.579 148.096C149.131 148.16 148.693 148.203 148.267 148.224C147.84 148.267 147.499 148.288 147.243 148.288C145.941 148.288 144.949 147.925 144.266 147.2C143.584 146.475 143.243 145.429 143.243 144.064V127.808H145.963ZM150.923 132.416V134.56H140.427V132.576L143.499 132.416H150.923ZM160.838 132.032C162.63 132.032 164.059 132.299 165.126 132.832C166.214 133.365 166.993 134.24 167.462 135.456C167.931 136.651 168.166 138.24 168.166 140.224C168.166 142.208 167.931 143.808 167.462 145.024C166.993 146.219 166.214 147.083 165.126 147.616C164.059 148.149 162.63 148.416 160.838 148.416C159.067 148.416 157.638 148.149 156.55 147.616C155.483 147.083 154.705 146.219 154.214 145.024C153.745 143.808 153.51 142.208 153.51 140.224C153.51 138.24 153.745 136.651 154.214 135.456C154.705 134.24 155.483 133.365 156.55 132.832C157.638 132.299 159.067 132.032 160.838 132.032ZM160.838 134.336C159.707 134.336 158.811 134.517 158.15 134.88C157.51 135.221 157.051 135.819 156.774 136.672C156.497 137.525 156.358 138.709 156.358 140.224C156.358 141.739 156.497 142.923 156.774 143.776C157.051 144.629 157.51 145.237 158.15 145.6C158.811 145.941 159.707 146.112 160.838 146.112C161.969 146.112 162.865 145.941 163.526 145.6C164.187 145.237 164.657 144.629 164.934 143.776C165.211 142.923 165.35 141.739 165.35 140.224C165.35 138.709 165.211 137.525 164.934 136.672C164.657 135.819 164.187 135.221 163.526 134.88C162.865 134.517 161.969 134.336 160.838 134.336ZM161.862 125.216L166.118 129.28L165.158 130.464L161.03 127.36H160.774L156.614 130.464L155.686 129.28L159.91 125.216H161.862ZM175.25 132.416V148H172.562V132.416H175.25ZM174.546 125.792C175.1 125.792 175.378 126.069 175.378 126.624V128.448C175.378 129.003 175.1 129.28 174.546 129.28H173.266C172.711 129.28 172.434 129.003 172.434 128.448V126.624C172.434 126.069 172.711 125.792 173.266 125.792H174.546ZM194.088 132.032C195.88 132.032 197.309 132.299 198.376 132.832C199.464 133.365 200.243 134.24 200.712 135.456C201.181 136.651 201.416 138.24 201.416 140.224C201.416 142.208 201.181 143.808 200.712 145.024C200.243 146.219 199.464 147.083 198.376 147.616C197.309 148.149 195.88 148.416 194.088 148.416C192.317 148.416 190.888 148.149 189.8 147.616C188.733 147.083 187.955 146.219 187.464 145.024C186.995 143.808 186.76 142.208 186.76 140.224C186.76 138.24 186.995 136.651 187.464 135.456C187.955 134.24 188.733 133.365 189.8 132.832C190.888 132.299 192.317 132.032 194.088 132.032ZM194.088 134.336C192.957 134.336 192.061 134.517 191.4 134.88C190.76 135.221 190.301 135.819 190.024 136.672C189.747 137.525 189.608 138.709 189.608 140.224C189.608 141.739 189.747 142.923 190.024 143.776C190.301 144.629 190.76 145.237 191.4 145.6C192.061 145.941 192.957 146.112 194.088 146.112C195.219 146.112 196.115 145.941 196.776 145.6C197.437 145.237 197.907 144.629 198.184 143.776C198.461 142.923 198.6 141.739 198.6 140.224C198.6 138.709 198.461 137.525 198.184 136.672C197.907 135.819 197.437 135.221 196.776 134.88C196.115 134.517 195.219 134.336 194.088 134.336ZM199.176 134.976L199.048 133.632C199.859 133.525 200.509 133.195 201 132.64C201.491 132.064 201.768 131.349 201.832 130.496L203.784 130.656C203.763 131.509 203.528 132.267 203.08 132.928C202.632 133.568 202.056 134.069 201.352 134.432C200.669 134.795 199.944 134.976 199.176 134.976ZM208.875 132.416V148H206.187V132.416H208.875ZM208.171 125.792C208.725 125.792 209.003 126.069 209.003 126.624V128.448C209.003 129.003 208.725 129.28 208.171 129.28H206.891C206.336 129.28 206.059 129.003 206.059 128.448V126.624C206.059 126.069 206.336 125.792 206.891 125.792H208.171ZM215.564 144.224C215.948 144.224 216.204 144.299 216.332 144.448C216.481 144.597 216.556 144.864 216.556 145.248V147.296C216.556 147.893 216.503 148.48 216.396 149.056C216.311 149.632 216.183 150.176 216.012 150.688C215.863 151.221 215.671 151.733 215.436 152.224L214.156 151.84C214.263 151.179 214.337 150.571 214.38 150.016C214.444 149.461 214.476 148.789 214.476 148C213.964 148 213.708 147.701 213.708 147.104V145.248C213.729 144.864 213.825 144.597 213.996 144.448C214.167 144.299 214.423 144.224 214.764 144.224H215.564ZM231.744 127.808V143.712C231.744 144.459 231.904 144.992 232.224 145.312C232.544 145.632 233.088 145.792 233.856 145.792H236.224L236.544 147.872C236.202 147.957 235.808 148.032 235.36 148.096C234.912 148.16 234.474 148.203 234.048 148.224C233.621 148.267 233.28 148.288 233.024 148.288C231.722 148.288 230.73 147.925 230.048 147.2C229.365 146.475 229.024 145.429 229.024 144.064V127.808H231.744ZM236.704 132.416V134.56H226.208V132.576L229.28 132.416H236.704ZM249.499 132.032C252.315 132.032 253.723 133.461 253.723 136.32V148H250.971V137.088C250.971 136.043 250.801 135.328 250.459 134.944C250.139 134.539 249.574 134.336 248.763 134.336C247.803 134.336 246.843 134.56 245.883 135.008C244.923 135.456 243.782 136.107 242.459 136.96L242.331 135.008C243.547 134.091 244.753 133.365 245.947 132.832C247.142 132.299 248.326 132.032 249.499 132.032ZM242.747 125.6L242.779 131.776C242.779 132.48 242.747 133.141 242.683 133.76C242.641 134.379 242.566 134.923 242.459 135.392L242.747 135.872V148H240.027V125.6H242.747ZM261.437 132.416V148H258.749V132.416H261.437ZM260.733 125.792C261.288 125.792 261.565 126.069 261.565 126.624V128.448C261.565 129.003 261.288 129.28 260.733 129.28H259.453C258.898 129.28 258.621 129.003 258.621 128.448V126.624C258.621 126.069 258.898 125.792 259.453 125.792H260.733ZM277.025 127.808V143.712C277.025 144.459 277.185 144.992 277.505 145.312C277.825 145.632 278.369 145.792 279.137 145.792H281.505L281.825 147.872C281.484 147.957 281.089 148.032 280.641 148.096C280.193 148.16 279.756 148.203 279.329 148.224C278.902 148.267 278.561 148.288 278.305 148.288C277.004 148.288 276.012 147.925 275.329 147.2C274.646 146.475 274.305 145.429 274.305 144.064V127.808H277.025ZM281.985 132.416V134.56H271.489V132.576L274.561 132.416H281.985ZM294.781 132.032C297.597 132.032 299.005 133.461 299.005 136.32V148H296.253V137.088C296.253 136.043 296.082 135.328 295.741 134.944C295.421 134.539 294.855 134.336 294.045 134.336C293.085 134.336 292.125 134.56 291.165 135.008C290.205 135.456 289.063 136.107 287.741 136.96L287.613 135.008C288.829 134.091 290.034 133.365 291.229 132.832C292.423 132.299 293.607 132.032 294.781 132.032ZM288.029 125.6L288.061 131.776C288.061 132.48 288.029 133.141 287.965 133.76C287.922 134.379 287.847 134.923 287.741 135.392L288.029 135.872V148H285.309V125.6H288.029ZM311.134 125.088L315.39 129.152L314.43 130.336L310.27 127.232H310.014L305.886 130.336L304.958 129.152L309.15 125.088H311.134ZM311.262 132.032C312.414 132.032 313.385 132.192 314.174 132.512C314.985 132.811 315.593 133.323 315.998 134.048C316.404 134.773 316.606 135.765 316.606 137.024V148H314.462L314.046 144.608L313.854 144.256V137.024C313.854 136.064 313.63 135.381 313.182 134.976C312.756 134.549 311.924 134.336 310.686 134.336C309.876 134.336 308.852 134.379 307.614 134.464C306.398 134.549 305.193 134.645 303.998 134.752L303.742 132.736C304.468 132.608 305.257 132.491 306.11 132.384C306.985 132.277 307.87 132.192 308.766 132.128C309.662 132.064 310.494 132.032 311.262 132.032ZM315.326 138.4L315.294 140.448L307.838 140.48C307.092 140.501 306.569 140.704 306.27 141.088C305.972 141.451 305.822 141.963 305.822 142.624V143.616C305.822 144.427 306.014 145.024 306.398 145.408C306.782 145.771 307.401 145.952 308.254 145.952C308.852 145.952 309.524 145.845 310.27 145.632C311.038 145.397 311.806 145.045 312.574 144.576C313.342 144.107 314.046 143.509 314.686 142.784V144.8C314.452 145.099 314.11 145.451 313.662 145.856C313.236 146.24 312.713 146.624 312.094 147.008C311.497 147.371 310.825 147.68 310.078 147.936C309.353 148.171 308.564 148.288 307.71 148.288C306.793 148.288 305.982 148.128 305.278 147.808C304.574 147.467 304.02 146.976 303.614 146.336C303.23 145.675 303.038 144.875 303.038 143.936V142.24C303.038 141.024 303.412 140.085 304.158 139.424C304.926 138.741 305.993 138.4 307.358 138.4H315.326ZM310.302 150.048C310.857 150.048 311.134 150.315 311.134 150.848V152.672C311.134 153.227 310.857 153.504 310.302 153.504H309.438C308.884 153.504 308.606 153.227 308.606 152.672V150.848C308.606 150.315 308.884 150.048 309.438 150.048H310.302ZM325.369 127.808V143.712C325.369 144.459 325.529 144.992 325.849 145.312C326.169 145.632 326.713 145.792 327.481 145.792H329.849L330.169 147.872C329.827 147.957 329.433 148.032 328.985 148.096C328.537 148.16 328.099 148.203 327.673 148.224C327.246 148.267 326.905 148.288 326.649 148.288C325.347 148.288 324.355 147.925 323.673 147.2C322.99 146.475 322.649 145.429 322.649 144.064V127.808H325.369ZM330.329 132.416V134.56H319.833V132.576L322.905 132.416H330.329ZM344.119 127.808V143.712C344.119 144.459 344.279 144.992 344.599 145.312C344.919 145.632 345.463 145.792 346.231 145.792H348.599L348.919 147.872C348.577 147.957 348.183 148.032 347.735 148.096C347.287 148.16 346.849 148.203 346.423 148.224C345.996 148.267 345.655 148.288 345.399 148.288C344.097 148.288 343.105 147.925 342.423 147.2C341.74 146.475 341.399 145.429 341.399 144.064V127.808H344.119ZM349.079 132.416V134.56H338.583V132.576L341.655 132.416H349.079ZM358.994 132.032C360.786 132.032 362.216 132.299 363.282 132.832C364.37 133.365 365.149 134.24 365.618 135.456C366.088 136.651 366.322 138.24 366.322 140.224C366.322 142.208 366.088 143.808 365.618 145.024C365.149 146.219 364.37 147.083 363.282 147.616C362.216 148.149 360.786 148.416 358.994 148.416C357.224 148.416 355.794 148.149 354.706 147.616C353.64 147.083 352.861 146.219 352.37 145.024C351.901 143.808 351.666 142.208 351.666 140.224C351.666 138.24 351.901 136.651 352.37 135.456C352.861 134.24 353.64 133.365 354.706 132.832C355.794 132.299 357.224 132.032 358.994 132.032ZM358.994 134.336C357.864 134.336 356.968 134.517 356.306 134.88C355.666 135.221 355.208 135.819 354.93 136.672C354.653 137.525 354.514 138.709 354.514 140.224C354.514 141.739 354.653 142.923 354.93 143.776C355.208 144.629 355.666 145.237 356.306 145.6C356.968 145.941 357.864 146.112 358.994 146.112C360.125 146.112 361.021 145.941 361.682 145.6C362.344 145.237 362.813 144.629 363.09 143.776C363.368 142.923 363.506 141.739 363.506 140.224C363.506 138.709 363.368 137.525 363.09 136.672C362.813 135.819 362.344 135.221 361.682 134.88C361.021 134.517 360.125 134.336 358.994 134.336ZM358.066 125.504H360.018L364.05 129.056L363.154 130.24L359.186 127.52H358.93L354.962 130.24L354.002 129.056L358.066 125.504ZM365.394 122.112L367.186 123.84L363.09 127.04L362.066 126.016L365.394 122.112ZM374.463 127.808V143.712C374.463 144.459 374.623 144.992 374.943 145.312C375.263 145.632 375.807 145.792 376.575 145.792H378.943L379.263 147.872C378.921 147.957 378.527 148.032 378.079 148.096C377.631 148.16 377.193 148.203 376.767 148.224C376.34 148.267 375.999 148.288 375.743 148.288C374.441 148.288 373.449 147.925 372.766 147.2C372.084 146.475 371.743 145.429 371.743 144.064V127.808H374.463ZM379.423 132.416V134.56H368.927V132.576L371.999 132.416H379.423ZM399.343 132.032C402.159 132.032 403.567 133.461 403.567 136.32V148H400.847V137.088C400.847 136.043 400.676 135.328 400.335 134.944C399.994 134.539 399.418 134.336 398.607 134.336C397.647 134.336 396.687 134.571 395.727 135.04C394.767 135.509 393.626 136.149 392.303 136.96L392.175 135.008C393.391 134.069 394.596 133.344 395.791 132.832C396.986 132.299 398.17 132.032 399.343 132.032ZM392.175 132.416L392.399 135.392L392.591 135.872V148H389.871V132.416H392.175ZM417.937 132.032C420.753 132.032 422.161 133.461 422.161 136.32V148H419.409V137.088C419.409 136.043 419.238 135.328 418.897 134.944C418.577 134.539 418.011 134.336 417.201 134.336C416.241 134.336 415.281 134.56 414.321 135.008C413.361 135.456 412.219 136.107 410.897 136.96L410.769 135.008C411.985 134.091 413.19 133.365 414.385 132.832C415.579 132.299 416.763 132.032 417.937 132.032ZM411.185 125.6L411.217 131.776C411.217 132.48 411.185 133.141 411.121 133.76C411.078 134.379 411.003 134.923 410.897 135.392L411.185 135.872V148H408.465V125.6H411.185ZM433.459 132.032C435.805 132.032 437.501 132.459 438.547 133.312C439.613 134.165 440.147 135.435 440.147 137.12C440.168 138.507 439.88 139.595 439.283 140.384C438.685 141.152 437.736 141.536 436.435 141.536H427.347V139.424H435.731C436.435 139.424 436.893 139.189 437.107 138.72C437.32 138.229 437.427 137.696 437.427 137.12C437.405 136.117 437.107 135.403 436.531 134.976C435.955 134.549 434.973 134.336 433.587 134.336C432.456 134.336 431.56 134.507 430.899 134.848C430.259 135.168 429.8 135.744 429.523 136.576C429.267 137.387 429.139 138.528 429.139 140C429.139 141.664 429.299 142.933 429.619 143.808C429.96 144.683 430.493 145.28 431.219 145.6C431.944 145.92 432.904 146.08 434.099 146.08C434.931 146.08 435.837 146.048 436.819 145.984C437.821 145.899 438.717 145.803 439.507 145.696L439.795 147.52C439.304 147.712 438.696 147.872 437.971 148C437.267 148.128 436.531 148.224 435.763 148.288C435.016 148.352 434.344 148.384 433.747 148.384C431.955 148.384 430.515 148.117 429.427 147.584C428.339 147.029 427.539 146.155 427.027 144.96C426.536 143.744 426.291 142.144 426.291 140.16C426.291 138.112 426.536 136.501 427.027 135.328C427.539 134.133 428.317 133.291 429.363 132.8C430.429 132.288 431.795 132.032 433.459 132.032ZM436.787 124.288L438.355 126.4L432.211 130.24L431.283 128.992L436.787 124.288ZM447.478 125.76V135.552L447.222 141.248H445.046L444.758 135.552V125.76H447.478ZM446.486 144.224C446.849 144.224 447.105 144.299 447.254 144.448C447.425 144.597 447.51 144.864 447.51 145.248V146.976C447.51 147.36 447.425 147.627 447.254 147.776C447.105 147.925 446.849 148 446.486 148H445.782C445.419 148 445.163 147.925 445.014 147.776C444.865 147.627 444.79 147.36 444.79 146.976V145.248C444.79 144.864 444.865 144.597 445.014 144.448C445.163 144.299 445.419 144.224 445.782 144.224H446.486Z" fill="black"/>
</svg>
