<svg width="902" height="113" viewBox="0 0 902 113" fill="none" xmlns="http://www.w3.org/2000/svg">
<path d="M596 1H27L1 27.2463V112H476L502 84.1133H580L596 64.4286V1Z" stroke="black"/>
<path d="M596 112L615.5 88.0151H689.5L707.5 63.4724V1H901V88.0151L871.5 112H596Z" fill="black" stroke="black"/>
<path d="M691.061 47.0607C691.646 46.4749 691.646 45.5251 691.061 44.9393L681.515 35.3934C680.929 34.8076 679.979 34.8076 679.393 35.3934C678.808 35.9792 678.808 36.9289 679.393 37.5147L687.879 46L679.393 54.4853C678.808 55.0711 678.808 56.0208 679.393 56.6066C679.979 57.1924 680.929 57.1924 681.515 56.6066L691.061 47.0607ZM614 47.5H690V44.5H614V47.5Z" fill="black"/>
</svg>
