<svg width="441" height="163" viewBox="0 0 441 163" fill="none" xmlns="http://www.w3.org/2000/svg">
<rect x="4" y="39" width="437" height="124" rx="20" fill="#0068FF"/>
<rect x="0.5" y="32.5" width="436" height="123" rx="19.5" fill="url(#paint0_linear_284_3)" stroke="white"/>
<path d="M113.939 122.872C108.776 122.872 104.872 121.763 102.227 119.544C99.5817 117.283 98.0243 113.827 97.555 109.176C97.5123 108.28 97.7257 107.597 98.195 107.128C98.6643 106.616 99.347 106.36 100.243 106.36C101.096 106.36 101.736 106.595 102.163 107.064C102.632 107.491 102.888 108.152 102.931 109.048C103.272 112.163 104.275 114.36 105.939 115.64C107.646 116.877 110.312 117.496 113.939 117.496H134.931C139.155 117.496 142.056 116.685 143.635 115.064C145.256 113.4 146.067 110.499 146.067 106.36C146.067 102.179 145.256 99.2773 143.635 97.656C142.056 96.0347 139.155 95.224 134.931 95.224H114.195C108.819 95.224 104.851 93.9653 102.291 91.448C99.731 88.9307 98.451 84.984 98.451 79.608C98.451 74.1467 99.731 70.1573 102.291 67.64C104.851 65.1227 108.819 63.864 114.195 63.864H134.291C143.848 63.864 149.011 68.1307 149.779 76.664C149.907 77.56 149.736 78.264 149.267 78.776C148.798 79.2453 148.115 79.48 147.219 79.48C146.323 79.48 145.662 79.2667 145.235 78.84C144.808 78.3707 144.531 77.688 144.403 76.792C144.147 73.976 143.251 72.0133 141.715 70.904C140.179 69.7947 137.704 69.24 134.291 69.24H114.195C110.312 69.24 107.603 69.9867 106.067 71.48C104.574 72.9733 103.827 75.6827 103.827 79.608C103.827 83.448 104.574 86.1147 106.067 87.608C107.603 89.1013 110.312 89.848 114.195 89.848H134.931C140.648 89.848 144.83 91.1707 147.475 93.816C150.12 96.4613 151.443 100.643 151.443 106.36C151.443 112.035 150.12 116.216 147.475 118.904C144.83 121.549 140.648 122.872 134.931 122.872H113.939ZM191.765 123C183.957 123 178.261 121.229 174.677 117.688C171.136 114.104 169.365 108.451 169.365 100.728V86.392C169.365 78.4987 171.136 72.7813 174.677 69.24C178.261 65.656 183.957 63.9067 191.765 63.992H202.261C210.069 63.992 215.744 65.784 219.285 69.368C222.869 72.9093 224.661 78.584 224.661 86.392V100.6C224.661 108.408 222.869 114.104 219.285 117.688C215.744 121.229 210.069 123 202.261 123H191.765ZM174.741 100.728C174.741 106.915 176 111.288 178.517 113.848C181.077 116.365 185.493 117.624 191.765 117.624H202.261C208.533 117.624 212.928 116.365 215.445 113.848C218.005 111.288 219.285 106.872 219.285 100.6V86.392C219.285 80.12 218.005 75.7253 215.445 73.208C212.928 70.648 208.533 69.368 202.261 69.368H191.765C187.584 69.3253 184.234 69.8587 181.717 70.968C179.242 72.0347 177.45 73.8267 176.341 76.344C175.274 78.8187 174.741 82.168 174.741 86.392V100.728ZM258.939 122.872C253.776 122.872 249.872 121.763 247.227 119.544C244.582 117.283 243.024 113.827 242.555 109.176C242.512 108.28 242.726 107.597 243.195 107.128C243.664 106.616 244.347 106.36 245.243 106.36C246.096 106.36 246.736 106.595 247.163 107.064C247.632 107.491 247.888 108.152 247.931 109.048C248.272 112.163 249.275 114.36 250.939 115.64C252.646 116.877 255.312 117.496 258.939 117.496H279.931C284.155 117.496 287.056 116.685 288.635 115.064C290.256 113.4 291.067 110.499 291.067 106.36C291.067 102.179 290.256 99.2773 288.635 97.656C287.056 96.0347 284.155 95.224 279.931 95.224H259.195C253.819 95.224 249.851 93.9653 247.291 91.448C244.731 88.9307 243.451 84.984 243.451 79.608C243.451 74.1467 244.731 70.1573 247.291 67.64C249.851 65.1227 253.819 63.864 259.195 63.864H279.291C288.848 63.864 294.011 68.1307 294.779 76.664C294.907 77.56 294.736 78.264 294.267 78.776C293.798 79.2453 293.115 79.48 292.219 79.48C291.323 79.48 290.662 79.2667 290.235 78.84C289.808 78.3707 289.531 77.688 289.403 76.792C289.147 73.976 288.251 72.0133 286.715 70.904C285.179 69.7947 282.704 69.24 279.291 69.24H259.195C255.312 69.24 252.603 69.9867 251.067 71.48C249.574 72.9733 248.827 75.6827 248.827 79.608C248.827 83.448 249.574 86.1147 251.067 87.608C252.603 89.1013 255.312 89.848 259.195 89.848H279.931C285.648 89.848 289.83 91.1707 292.475 93.816C295.12 96.4613 296.443 100.643 296.443 106.36C296.443 112.035 295.12 116.216 292.475 118.904C289.83 121.549 285.648 122.872 279.931 122.872H258.939Z" fill="black"/>
<path d="M102.227 119.544L101.577 120.304L101.584 120.31L102.227 119.544ZM97.555 109.176L96.5561 109.224L96.5574 109.25L96.5601 109.276L97.555 109.176ZM98.195 107.128L98.9021 107.835L98.9175 107.82L98.9322 107.804L98.195 107.128ZM102.163 107.064L101.423 107.737L101.455 107.772L101.49 107.804L102.163 107.064ZM102.931 109.048L101.932 109.096L101.934 109.126L101.937 109.157L102.931 109.048ZM105.939 115.64L105.329 116.433L105.341 116.441L105.352 116.45L105.939 115.64ZM143.635 115.064L142.919 114.366L142.919 114.366L143.635 115.064ZM143.635 97.656L142.918 98.3537L142.928 98.3631L143.635 97.656ZM102.291 67.64L101.59 66.927L102.291 67.64ZM149.779 76.664L148.783 76.7536L148.785 76.7796L148.789 76.8054L149.779 76.664ZM149.267 78.776L149.974 79.4831L149.989 79.4677L150.004 79.4517L149.267 78.776ZM145.235 78.84L144.495 79.5127L144.511 79.5303L144.528 79.5471L145.235 78.84ZM144.403 76.792L143.407 76.8825L143.409 76.9081L143.413 76.9334L144.403 76.792ZM141.715 70.904L141.13 71.7147L141.715 70.904ZM106.067 71.48L105.37 70.7629L105.36 70.7729L106.067 71.48ZM106.067 87.608L105.36 88.3152L105.37 88.325L106.067 87.608ZM147.475 93.816L146.768 94.5231L147.475 93.816ZM147.475 118.904L148.182 119.611L148.188 119.605L147.475 118.904ZM113.939 121.872C108.899 121.872 105.264 120.786 102.87 118.778L101.584 120.31C104.48 122.739 108.654 123.872 113.939 123.872V121.872ZM102.877 118.784C100.486 116.741 99.0025 113.56 98.5499 109.076L96.5601 109.276C97.0462 114.093 98.6769 117.825 101.577 120.304L102.877 118.784ZM98.5539 109.128C98.5197 108.411 98.6949 108.042 98.9021 107.835L97.4879 106.421C96.7564 107.152 96.505 108.149 96.5561 109.224L98.5539 109.128ZM98.9322 107.804C99.1608 107.554 99.5412 107.36 100.243 107.36V105.36C99.1528 105.36 98.1679 105.678 97.4578 106.452L98.9322 107.804ZM100.243 107.36C100.916 107.36 101.245 107.541 101.423 107.737L102.903 106.391C102.228 105.649 101.276 105.36 100.243 105.36V107.36ZM101.49 107.804C101.694 107.989 101.897 108.354 101.932 109.096L103.93 109C103.88 107.95 103.57 106.992 102.836 106.324L101.49 107.804ZM101.937 109.157C102.293 112.409 103.362 114.92 105.329 116.433L106.549 114.847C105.188 113.8 104.251 111.916 103.925 108.939L101.937 109.157ZM105.352 116.45C107.314 117.872 110.237 118.496 113.939 118.496V116.496C110.387 116.496 107.978 115.883 106.526 114.83L105.352 116.45ZM113.939 118.496H134.931V116.496H113.939V118.496ZM134.931 118.496C139.214 118.496 142.476 117.688 144.351 115.762L142.919 114.366C141.637 115.683 139.096 116.496 134.931 116.496V118.496ZM144.351 115.762C146.253 113.811 147.067 110.573 147.067 106.36H145.067C145.067 110.424 144.26 112.989 142.919 114.366L144.351 115.762ZM147.067 106.36C147.067 102.112 146.256 98.8624 144.342 96.9489L142.928 98.3631C144.257 99.6923 145.067 102.246 145.067 106.36H147.067ZM144.351 96.9584C142.476 95.0322 139.214 94.224 134.931 94.224V96.224C139.096 96.224 141.637 97.0371 142.919 98.3536L144.351 96.9584ZM134.931 94.224H114.195V96.224H134.931V94.224ZM114.195 94.224C108.953 94.224 105.29 92.9945 102.992 90.735L101.59 92.161C104.412 94.9362 108.685 96.224 114.195 96.224V94.224ZM102.992 90.735C100.701 88.4816 99.451 84.8481 99.451 79.608H97.451C97.451 85.1199 98.7615 89.3798 101.59 92.161L102.992 90.735ZM99.451 79.608C99.451 74.2771 100.703 70.6039 102.992 68.353L101.59 66.927C98.7589 69.7108 97.451 74.0162 97.451 79.608H99.451ZM102.992 68.353C105.29 66.0935 108.953 64.864 114.195 64.864V62.864C108.685 62.864 104.412 64.1518 101.59 66.927L102.992 68.353ZM114.195 64.864H134.291V62.864H114.195V64.864ZM134.291 64.864C138.935 64.864 142.355 65.9016 144.694 67.8348C147.016 69.754 148.416 72.6749 148.783 76.7536L150.775 76.5744C150.374 72.1198 148.809 68.6407 145.968 66.2932C143.145 63.9597 139.205 62.864 134.291 62.864V64.864ZM148.789 76.8054C148.889 77.5016 148.739 77.8722 148.53 78.1003L150.004 79.4517C150.734 78.6558 150.925 77.6184 150.769 76.5226L148.789 76.8054ZM148.56 78.0689C148.336 78.2925 147.945 78.48 147.219 78.48V80.48C148.285 80.48 149.259 80.1981 149.974 79.4831L148.56 78.0689ZM147.219 78.48C146.461 78.48 146.107 78.2978 145.942 78.1329L144.528 79.5471C145.216 80.2355 146.185 80.48 147.219 80.48V78.48ZM145.975 78.1673C145.729 77.8969 145.504 77.4295 145.393 76.6506L143.413 76.9334C143.558 77.9465 143.888 78.8445 144.495 79.5127L145.975 78.1673ZM145.399 76.7015C145.13 73.741 144.167 71.4413 142.3 70.0933L141.13 71.7147C142.335 72.5853 143.164 74.211 143.407 76.8825L145.399 76.7015ZM142.3 70.0933C140.504 68.7961 137.767 68.24 134.291 68.24V70.24C137.642 70.24 139.854 70.7932 141.13 71.7147L142.3 70.0933ZM134.291 68.24H114.195V70.24H134.291V68.24ZM114.195 68.24C110.244 68.24 107.195 68.9882 105.37 70.763L106.764 72.197C108.011 70.9852 110.381 70.24 114.195 70.24V68.24ZM105.36 70.7729C103.572 72.5609 102.827 75.6223 102.827 79.608H104.827C104.827 75.743 105.575 73.3857 106.774 72.1871L105.36 70.7729ZM102.827 79.608C102.827 83.516 103.575 86.53 105.36 88.3151L106.774 86.9009C105.573 85.6993 104.827 83.38 104.827 79.608H102.827ZM105.37 88.325C107.195 90.0998 110.244 90.848 114.195 90.848V88.848C110.381 88.848 108.011 88.1028 106.764 86.891L105.37 88.325ZM114.195 90.848H134.931V88.848H114.195V90.848ZM134.931 90.848C140.521 90.848 144.389 92.1441 146.768 94.5231L148.182 93.1089C145.27 90.1972 140.776 88.848 134.931 88.848V90.848ZM146.768 94.5231C149.147 96.9021 150.443 100.77 150.443 106.36H152.443C152.443 100.515 151.094 96.0206 148.182 93.1089L146.768 94.5231ZM150.443 106.36C150.443 111.903 149.149 115.778 146.762 118.203L148.188 119.605C151.092 116.654 152.443 112.167 152.443 106.36H150.443ZM146.768 118.197C144.389 120.576 140.521 121.872 134.931 121.872V123.872C140.776 123.872 145.27 122.523 148.182 119.611L146.768 118.197ZM134.931 121.872H113.939V123.872H134.931V121.872ZM174.677 117.688L173.966 118.391L173.974 118.399L174.677 117.688ZM174.677 69.24L173.97 68.5329L174.677 69.24ZM191.765 63.992L191.754 64.992H191.765V63.992ZM219.285 69.368L218.574 70.0709L218.582 70.0793L219.285 69.368ZM219.285 117.688L219.992 118.395L219.285 117.688ZM178.517 113.848L177.804 114.549L177.81 114.555L177.816 114.561L178.517 113.848ZM215.445 113.848L216.152 114.555L215.445 113.848ZM215.445 73.208L214.732 73.9091L214.738 73.9151L214.744 73.921L215.445 73.208ZM191.765 69.368L191.755 70.368H191.765V69.368ZM181.717 70.968L182.113 71.8864L182.12 71.8831L181.717 70.968ZM176.341 76.344L175.426 75.9407L175.423 75.9482L176.341 76.344ZM191.765 122C184.079 122 178.696 120.253 175.38 116.977L173.974 118.399C177.826 122.205 183.835 124 191.765 124V122ZM175.388 116.985C172.11 113.667 170.365 108.325 170.365 100.728H168.365C168.365 108.577 170.161 114.541 173.966 118.391L175.388 116.985ZM170.365 100.728V86.392H168.365V100.728H170.365ZM170.365 86.392C170.365 78.6159 172.114 73.2173 175.384 69.9471L173.97 68.5329C170.157 72.3454 168.365 78.3814 168.365 86.392H170.365ZM175.384 69.9471C178.696 66.6348 184.072 64.908 191.754 64.9919L191.776 62.9921C183.842 62.9053 177.826 64.6772 173.97 68.5329L175.384 69.9471ZM191.765 64.992H202.261V62.992H191.765V64.992ZM202.261 64.992C209.945 64.992 215.302 66.7593 218.574 70.0709L219.996 68.6651C216.186 64.8087 210.193 62.992 202.261 62.992V64.992ZM218.582 70.0793C221.894 73.3515 223.661 78.7077 223.661 86.392H225.661C225.661 78.4603 223.844 72.4672 219.988 68.6567L218.582 70.0793ZM223.661 86.392V100.6H225.661V86.392H223.661ZM223.661 100.6C223.661 108.283 221.894 113.664 218.578 116.981L219.992 118.395C223.844 114.543 225.661 108.533 225.661 100.6H223.661ZM218.578 116.981C215.306 120.253 209.948 122 202.261 122V124C210.19 124 216.181 122.206 219.992 118.395L218.578 116.981ZM202.261 122H191.765V124H202.261V122ZM173.741 100.728C173.741 107.001 175.008 111.706 177.804 114.549L179.23 113.147C176.991 110.87 175.741 106.829 175.741 100.728H173.741ZM177.816 114.561C180.661 117.359 185.412 118.624 191.765 118.624V116.624C185.574 116.624 181.493 115.372 179.218 113.135L177.816 114.561ZM191.765 118.624H202.261V116.624H191.765V118.624ZM202.261 118.624C208.612 118.624 213.347 117.36 216.152 114.555L214.738 113.141C212.508 115.371 208.454 116.624 202.261 116.624V118.624ZM216.152 114.555C218.997 111.71 220.285 106.957 220.285 100.6H218.285C218.285 106.787 217.013 110.866 214.738 113.141L216.152 114.555ZM220.285 100.6V86.392H218.285V100.6H220.285ZM220.285 86.392C220.285 80.0378 218.998 75.2995 216.146 72.495L214.744 73.921C217.012 76.1511 218.285 80.2022 218.285 86.392H220.285ZM216.158 72.5069C213.353 69.6548 208.615 68.368 202.261 68.368V70.368C208.451 70.368 212.502 71.6412 214.732 73.9091L216.158 72.5069ZM202.261 68.368H191.765V70.368H202.261V68.368ZM191.775 68.368C187.519 68.3246 184.011 68.8642 181.314 70.0529L182.12 71.8831C184.458 70.8531 187.649 70.326 191.755 70.3679L191.775 68.368ZM181.321 70.0497C178.609 71.2186 176.635 73.1976 175.426 75.9407L177.256 76.7473C178.266 74.4557 179.875 72.8507 182.113 71.8863L181.321 70.0497ZM175.423 75.9482C174.28 78.5985 173.741 82.1007 173.741 86.392H175.741C175.741 82.2353 176.268 79.0388 177.259 76.7398L175.423 75.9482ZM173.741 86.392V100.728H175.741V86.392H173.741ZM247.227 119.544L246.577 120.304L246.584 120.31L247.227 119.544ZM242.555 109.176L241.556 109.224L241.557 109.25L241.56 109.276L242.555 109.176ZM243.195 107.128L243.902 107.835L243.917 107.82L243.932 107.804L243.195 107.128ZM247.163 107.064L246.423 107.737L246.455 107.772L246.49 107.804L247.163 107.064ZM247.931 109.048L246.932 109.096L246.934 109.126L246.937 109.157L247.931 109.048ZM250.939 115.64L250.329 116.433L250.341 116.441L250.352 116.45L250.939 115.64ZM288.635 115.064L287.919 114.366L287.919 114.366L288.635 115.064ZM288.635 97.656L287.918 98.3537L287.928 98.3631L288.635 97.656ZM247.291 67.64L246.59 66.927L247.291 67.64ZM294.779 76.664L293.783 76.7536L293.785 76.7796L293.789 76.8054L294.779 76.664ZM294.267 78.776L294.974 79.4831L294.989 79.4677L295.004 79.4517L294.267 78.776ZM290.235 78.84L289.495 79.5127L289.511 79.5303L289.528 79.5471L290.235 78.84ZM289.403 76.792L288.407 76.8825L288.409 76.9081L288.413 76.9334L289.403 76.792ZM286.715 70.904L286.13 71.7147L286.715 70.904ZM251.067 71.48L250.37 70.7629L250.36 70.7729L251.067 71.48ZM251.067 87.608L250.36 88.3152L250.37 88.325L251.067 87.608ZM292.475 93.816L291.768 94.5231L292.475 93.816ZM292.475 118.904L293.182 119.611L293.188 119.605L292.475 118.904ZM258.939 121.872C253.899 121.872 250.264 120.786 247.87 118.778L246.584 120.31C249.48 122.739 253.654 123.872 258.939 123.872V121.872ZM247.877 118.784C245.486 116.741 244.003 113.56 243.55 109.076L241.56 109.276C242.046 114.093 243.677 117.825 246.577 120.304L247.877 118.784ZM243.554 109.128C243.52 108.411 243.695 108.042 243.902 107.835L242.488 106.421C241.756 107.152 241.505 108.149 241.556 109.224L243.554 109.128ZM243.932 107.804C244.161 107.554 244.541 107.36 245.243 107.36V105.36C244.153 105.36 243.168 105.678 242.458 106.452L243.932 107.804ZM245.243 107.36C245.916 107.36 246.245 107.541 246.423 107.737L247.903 106.391C247.228 105.649 246.276 105.36 245.243 105.36V107.36ZM246.49 107.804C246.694 107.989 246.897 108.354 246.932 109.096L248.93 109C248.88 107.95 248.57 106.992 247.836 106.324L246.49 107.804ZM246.937 109.157C247.293 112.409 248.363 114.92 250.329 116.433L251.549 114.847C250.188 113.8 249.251 111.916 248.925 108.939L246.937 109.157ZM250.352 116.45C252.314 117.872 255.237 118.496 258.939 118.496V116.496C255.387 116.496 252.978 115.883 251.526 114.83L250.352 116.45ZM258.939 118.496H279.931V116.496H258.939V118.496ZM279.931 118.496C284.214 118.496 287.476 117.688 289.351 115.762L287.919 114.366C286.637 115.683 284.096 116.496 279.931 116.496V118.496ZM289.351 115.762C291.253 113.811 292.067 110.573 292.067 106.36H290.067C290.067 110.424 289.26 112.989 287.919 114.366L289.351 115.762ZM292.067 106.36C292.067 102.112 291.256 98.8624 289.342 96.9489L287.928 98.3631C289.257 99.6923 290.067 102.246 290.067 106.36H292.067ZM289.351 96.9584C287.476 95.0322 284.214 94.224 279.931 94.224V96.224C284.096 96.224 286.637 97.0371 287.919 98.3536L289.351 96.9584ZM279.931 94.224H259.195V96.224H279.931V94.224ZM259.195 94.224C253.953 94.224 250.29 92.9945 247.992 90.735L246.59 92.161C249.412 94.9362 253.685 96.224 259.195 96.224V94.224ZM247.992 90.735C245.701 88.4816 244.451 84.8481 244.451 79.608H242.451C242.451 85.1199 243.761 89.3798 246.59 92.161L247.992 90.735ZM244.451 79.608C244.451 74.2771 245.703 70.6039 247.992 68.353L246.59 66.927C243.759 69.7108 242.451 74.0162 242.451 79.608H244.451ZM247.992 68.353C250.29 66.0935 253.953 64.864 259.195 64.864V62.864C253.685 62.864 249.412 64.1518 246.59 66.927L247.992 68.353ZM259.195 64.864H279.291V62.864H259.195V64.864ZM279.291 64.864C283.934 64.864 287.355 65.9016 289.694 67.8348C292.016 69.754 293.416 72.6749 293.783 76.7536L295.775 76.5744C295.374 72.1198 293.809 68.6407 290.968 66.2932C288.145 63.9597 284.205 62.864 279.291 62.864V64.864ZM293.789 76.8054C293.889 77.5016 293.739 77.8722 293.53 78.1003L295.004 79.4517C295.734 78.6558 295.925 77.6184 295.769 76.5226L293.789 76.8054ZM293.56 78.0689C293.336 78.2925 292.945 78.48 292.219 78.48V80.48C293.285 80.48 294.259 80.1981 294.974 79.4831L293.56 78.0689ZM292.219 78.48C291.461 78.48 291.107 78.2978 290.942 78.1329L289.528 79.5471C290.216 80.2355 291.185 80.48 292.219 80.48V78.48ZM290.975 78.1673C290.729 77.8969 290.504 77.4295 290.393 76.6506L288.413 76.9334C288.558 77.9465 288.888 78.8445 289.495 79.5127L290.975 78.1673ZM290.399 76.7015C290.13 73.741 289.167 71.4413 287.3 70.0933L286.13 71.7147C287.335 72.5853 288.164 74.211 288.407 76.8825L290.399 76.7015ZM287.3 70.0933C285.504 68.7961 282.767 68.24 279.291 68.24V70.24C282.642 70.24 284.854 70.7932 286.13 71.7147L287.3 70.0933ZM279.291 68.24H259.195V70.24H279.291V68.24ZM259.195 68.24C255.244 68.24 252.195 68.9882 250.37 70.763L251.764 72.197C253.011 70.9852 255.381 70.24 259.195 70.24V68.24ZM250.36 70.7729C248.572 72.5609 247.827 75.6223 247.827 79.608H249.827C249.827 75.743 250.575 73.3857 251.774 72.1871L250.36 70.7729ZM247.827 79.608C247.827 83.516 248.575 86.53 250.36 88.3151L251.774 86.9009C250.573 85.6993 249.827 83.38 249.827 79.608H247.827ZM250.37 88.325C252.195 90.0998 255.244 90.848 259.195 90.848V88.848C255.381 88.848 253.011 88.1028 251.764 86.891L250.37 88.325ZM259.195 90.848H279.931V88.848H259.195V90.848ZM279.931 90.848C285.521 90.848 289.389 92.1441 291.768 94.5231L293.182 93.1089C290.27 90.1972 285.776 88.848 279.931 88.848V90.848ZM291.768 94.5231C294.147 96.9021 295.443 100.77 295.443 106.36H297.443C297.443 100.515 296.094 96.0206 293.182 93.1089L291.768 94.5231ZM295.443 106.36C295.443 111.903 294.149 115.778 291.762 118.203L293.188 119.605C296.092 116.654 297.443 112.167 297.443 106.36H295.443ZM291.768 118.197C289.389 120.576 285.521 121.872 279.931 121.872V123.872C285.776 123.872 290.27 122.523 293.182 119.611L291.768 118.197ZM279.931 121.872H258.939V123.872H279.931V121.872Z" fill="white"/>
<path d="M320.581 136.024C320.437 136.024 320.317 135.976 320.221 135.88C320.125 135.784 320.077 135.664 320.077 135.52V121.792H314.821C314.677 121.792 314.557 121.744 314.461 121.648C314.365 121.552 314.317 121.432 314.317 121.288C314.317 121.144 314.365 121.024 314.461 120.928C314.557 120.832 314.677 120.784 314.821 120.784H326.341C326.485 120.784 326.605 120.832 326.701 120.928C326.797 121.024 326.845 121.144 326.845 121.288C326.845 121.432 326.797 121.552 326.701 121.648C326.605 121.744 326.485 121.792 326.341 121.792H321.085V135.52C321.085 135.664 321.037 135.784 320.941 135.88C320.845 135.976 320.725 136.024 320.581 136.024ZM329.863 136C329.527 136 329.359 135.832 329.359 135.496V121.312C329.359 120.976 329.527 120.808 329.863 120.808H338.983C339.319 120.808 339.487 120.976 339.487 121.312C339.487 121.648 339.319 121.816 338.983 121.816H330.367V127.792H336.151C336.487 127.792 336.655 127.96 336.655 128.296C336.655 128.632 336.487 128.8 336.151 128.8H330.367V134.992H338.983C339.319 134.992 339.487 135.16 339.487 135.496C339.487 135.832 339.319 136 338.983 136H329.863ZM341.116 135.952C340.82 135.808 340.732 135.584 340.852 135.28L346.876 121.192C346.972 120.936 347.164 120.808 347.452 120.808H347.524C347.788 120.808 347.98 120.936 348.1 121.192L354.1 135.28C354.236 135.584 354.148 135.808 353.836 135.952C353.532 136.08 353.316 135.992 353.188 135.688L351.496 131.704H343.504L341.788 135.688C341.66 135.992 341.436 136.08 341.116 135.952ZM343.936 130.696H351.064L347.524 122.392L343.936 130.696ZM357.309 136C356.973 136 356.805 135.832 356.805 135.496V121.312C356.805 120.976 356.973 120.808 357.309 120.808C357.573 120.808 357.773 120.92 357.909 121.144L363.981 130.48L363.741 130.504L369.813 121.144C369.949 120.92 370.149 120.808 370.413 120.808C370.733 120.808 370.893 120.976 370.893 121.312V135.496C370.893 135.832 370.725 136 370.389 136C370.053 136 369.885 135.832 369.885 135.496V122.32L370.173 122.416L364.461 131.2C364.325 131.424 364.125 131.536 363.861 131.536C363.597 131.536 363.397 131.424 363.261 131.2L357.549 122.416L357.813 122.536V135.496C357.813 135.832 357.645 136 357.309 136Z" fill="black"/>
<line x1="353" y1="73.5" x2="383" y2="73.5" stroke="white"/>
<line x1="368.5" y1="59" x2="368.5" y2="89" stroke="white"/>
<defs>
<linearGradient id="paint0_linear_284_3" x1="218.5" y1="32" x2="218.5" y2="156" gradientUnits="userSpaceOnUse">
<stop stop-color="#0068FF"/>
<stop offset="1" stop-color="#02C166"/>
</linearGradient>
</defs>
</svg>
