<svg width="303" height="132" viewBox="0 0 303 132" fill="none" xmlns="http://www.w3.org/2000/svg">
<path d="M13 57L35 19H302.5V111H215L199 131H13V57Z" fill="black" stroke="black"/>
<path d="M0 38L22 0H289.5V92H202L186 112H0V38Z" fill="#02C166"/>
<path d="M11 91H176V108H11V91Z" fill="#0068FF"/>
<path d="M71.2387 55.704L70.7587 59.304H54.8707L55.3987 55.704H71.2387ZM72.2467 41.4C75.7347 41.4 78.5027 41.928 80.5507 42.984C82.6307 44.008 84.0227 45.784 84.7267 48.312C85.4307 50.808 85.4627 54.28 84.8227 58.728C84.3427 62.152 83.7027 64.968 82.9027 67.176C82.1027 69.352 81.0787 71.048 79.8307 72.264C78.5827 73.448 77.0147 74.28 75.1267 74.76C73.2387 75.24 70.9827 75.48 68.3587 75.48C66.0547 75.48 63.8147 75.432 61.6387 75.336C59.4627 75.24 57.3827 75.128 55.3987 75L58.9987 69.576C60.1827 69.64 61.6387 69.704 63.3667 69.768C65.0947 69.8 66.7267 69.816 68.2627 69.816C69.6067 69.816 70.7587 69.672 71.7187 69.384C72.7107 69.064 73.5427 68.488 74.2147 67.656C74.9187 66.824 75.4947 65.656 75.9427 64.152C76.4227 62.616 76.8227 60.616 77.1427 58.152C77.4627 55.88 77.6227 54.024 77.6227 52.584C77.6227 51.112 77.4307 49.976 77.0467 49.176C76.6947 48.376 76.1027 47.816 75.2707 47.496C74.4387 47.176 73.3507 47.016 72.0067 47.016C71.0147 47.016 69.9747 47.032 68.8867 47.064C67.7987 47.064 66.7267 47.064 65.6707 47.064C64.6467 47.064 63.7027 47.064 62.8387 47.064L60.0547 41.88C61.2067 41.784 62.4707 41.704 63.8467 41.64C65.2227 41.544 66.6307 41.48 68.0707 41.448C69.5107 41.416 70.9027 41.4 72.2467 41.4ZM67.3987 41.88L62.7427 75H55.3987L60.0547 41.88H67.3987ZM102.279 50.664C103.111 50.664 104.039 50.712 105.063 50.808C106.119 50.872 107.175 50.968 108.231 51.096C109.319 51.224 110.327 51.368 111.255 51.528C112.215 51.688 112.999 51.848 113.607 52.008L108.759 55.848C107.479 55.784 106.311 55.752 105.255 55.752C104.199 55.72 103.207 55.704 102.279 55.704C101.223 55.704 100.327 55.784 99.5906 55.944C98.8546 56.104 98.2466 56.424 97.7666 56.904C97.2866 57.352 96.8866 58.04 96.5666 58.968C96.2466 59.896 95.9746 61.144 95.7506 62.712C95.4626 64.696 95.3026 66.216 95.2706 67.272C95.2706 68.296 95.4626 69 95.8466 69.384C96.2306 69.768 96.8386 69.944 97.6706 69.912C98.5346 69.88 99.4306 69.592 100.359 69.048C101.319 68.504 102.263 67.768 103.191 66.84C104.119 65.88 105.015 64.808 105.879 63.624L107.127 65.928C106.487 67.816 105.575 69.48 104.391 70.92C103.239 72.328 101.879 73.432 100.311 74.232C98.7426 75.032 96.9986 75.48 95.0786 75.576C92.9986 75.672 91.3986 75.256 90.2786 74.328C89.1906 73.4 88.5186 71.96 88.2626 70.008C88.0066 68.056 88.1026 65.608 88.5506 62.664C88.9666 59.944 89.5426 57.784 90.2786 56.184C91.0466 54.552 92.0066 53.352 93.1586 52.584C94.3106 51.784 95.6386 51.272 97.1426 51.048C98.6786 50.792 100.391 50.664 102.279 50.664ZM106.599 51.576L113.607 52.008L110.391 75H104.871L104.967 69.624L104.103 69.048L106.599 51.576ZM108.567 40.44L111.879 41.064C111.879 42.376 111.527 43.576 110.823 44.664C110.119 45.752 109.127 46.616 107.847 47.256C106.599 47.896 105.095 48.216 103.335 48.216C101.543 48.216 100.039 47.88 98.8226 47.208C97.6386 46.536 96.8066 45.624 96.3266 44.472C95.8466 43.32 95.7826 42.088 96.1346 40.776L99.5906 40.584C99.4306 41.64 99.6866 42.424 100.359 42.936C101.031 43.416 102.087 43.656 103.527 43.656C105.095 43.656 106.295 43.368 107.127 42.792C107.991 42.216 108.471 41.432 108.567 40.44ZM135.82 50.664C137.132 50.664 138.268 50.92 139.228 51.432C140.188 51.912 140.892 52.648 141.34 53.64C141.788 54.632 141.916 55.88 141.724 57.384L139.228 75H132.076L134.284 59.544C134.444 58.456 134.38 57.704 134.092 57.288C133.836 56.84 133.26 56.632 132.364 56.664C131.308 56.696 130.188 57.032 129.004 57.672C127.852 58.312 126.444 59.304 124.78 60.648L123.964 57.048C125.852 55.032 127.804 53.464 129.82 52.344C131.868 51.224 133.868 50.664 135.82 50.664ZM124.972 51.288V57.528L125.548 58.2L123.196 75H116.092L119.404 51.288H124.972ZM163.978 51.576L170.986 52.008L168.058 72.6C167.738 74.968 167.178 76.936 166.378 78.504C165.578 80.104 164.554 81.368 163.306 82.296C162.09 83.256 160.666 83.928 159.034 84.312C157.434 84.696 155.674 84.904 153.754 84.936C153.21 84.936 152.378 84.92 151.258 84.888C150.17 84.856 149.002 84.744 147.754 84.552C146.506 84.36 145.386 84.088 144.394 83.736L144.826 79.656C145.402 79.656 145.978 79.656 146.554 79.656C147.162 79.688 147.866 79.704 148.666 79.704C149.466 79.704 150.458 79.688 151.642 79.656C153.914 79.624 155.866 79.272 157.498 78.6C159.162 77.928 160.298 76.728 160.906 75C161.29 74.008 161.578 73.048 161.77 72.12C161.994 71.192 162.346 70.312 162.826 69.48L161.482 68.952L163.978 51.576ZM157.978 50.664C159.642 50.664 161.29 50.728 162.922 50.856C164.586 50.984 166.106 51.16 167.482 51.384C168.89 51.576 170.042 51.784 170.938 52.008L166.138 55.848C164.826 55.784 163.626 55.752 162.538 55.752C161.482 55.72 160.474 55.704 159.514 55.704C158.33 55.704 157.354 55.8 156.586 55.992C155.85 56.184 155.258 56.536 154.81 57.048C154.362 57.528 153.994 58.232 153.706 59.16C153.45 60.056 153.21 61.24 152.986 62.712C152.666 64.664 152.506 66.184 152.506 67.272C152.538 68.328 152.746 69.048 153.13 69.432C153.546 69.816 154.154 69.976 154.954 69.912C155.85 69.848 156.762 69.56 157.69 69.048C158.618 68.504 159.546 67.768 160.474 66.84C161.402 65.912 162.314 64.84 163.21 63.624L164.458 65.88C163.818 67.736 162.906 69.368 161.722 70.776C160.538 72.152 159.146 73.24 157.546 74.04C155.946 74.84 154.186 75.272 152.266 75.336C150.282 75.368 148.73 74.952 147.61 74.088C146.522 73.192 145.834 71.8 145.546 69.912C145.258 67.992 145.338 65.576 145.786 62.664C146.202 59.912 146.762 57.736 147.466 56.136C148.17 54.536 149.018 53.352 150.01 52.584C151.034 51.784 152.202 51.272 153.514 51.048C154.858 50.792 156.346 50.664 157.978 50.664ZM195.634 41.4L193.666 56.04C193.506 57.064 193.266 58.056 192.946 59.016C192.658 59.976 192.274 60.968 191.794 61.992C191.858 62.728 191.938 63.56 192.034 64.488C192.13 65.384 192.162 66.184 192.13 66.888L190.93 75H183.826L188.53 41.4H195.634ZM209.362 51.288C208.658 53.784 207.634 55.912 206.29 57.672C204.978 59.4 203.458 60.856 201.73 62.04C200.002 63.224 198.194 64.232 196.306 65.064C194.418 65.864 192.61 66.568 190.882 67.176L190.258 62.472C192.05 61.768 193.762 60.856 195.394 59.736C197.058 58.616 198.466 57.336 199.618 55.896C200.802 54.456 201.618 52.92 202.066 51.288H209.362ZM200.098 61.512C200.898 61.992 201.554 62.568 202.066 63.24C202.578 63.912 202.994 64.616 203.314 65.352L207.826 75H200.434L195.25 63.288L200.098 61.512ZM237.703 51.288C237.447 52.856 237.095 54.456 236.647 56.088C236.231 57.72 235.751 59.336 235.207 60.936C234.663 62.536 234.087 64.072 233.479 65.544C232.903 66.984 232.311 68.328 231.703 69.576C231.127 70.824 230.551 71.928 229.975 72.888C228.375 75.64 226.711 77.88 224.983 79.608C223.255 81.336 221.399 82.616 219.415 83.448C217.431 84.28 215.255 84.76 212.887 84.888L212.167 80.712C213.351 80.36 214.471 79.96 215.527 79.512C216.583 79.096 217.591 78.536 218.551 77.832C219.543 77.128 220.503 76.184 221.431 75C222.359 73.784 223.287 72.232 224.215 70.344C225.175 68.456 226.007 66.568 226.711 64.68C227.447 62.792 228.087 60.76 228.631 58.584C229.207 56.408 229.719 53.976 230.167 51.288H237.703ZM219.511 51.288L221.527 69.528C221.623 70.072 221.943 70.344 222.487 70.344H225.175L223.255 75H218.407C217.671 75 217.047 74.776 216.535 74.328C216.023 73.88 215.703 73.32 215.575 72.648L211.831 51.288H219.511ZM231.991 38.76L234.583 43.896L223.207 49.08L221.431 46.056L231.991 38.76Z" fill="white"/>
</svg>
