<svg width="620" height="197" viewBox="0 0 620 197" fill="none" xmlns="http://www.w3.org/2000/svg">
<path d="M60.1631 -5.126e-06C73.6631 -5.126e-06 90.3298 8.83333 110.163 26.5C137.163 57.8333 150.663 90.3333 150.663 124C150.663 157.5 134.246 180.417 101.413 192.75L94.4131 193.75C76.7464 193.75 62.9131 180.917 52.9131 155.25H52.4131C46.5798 176.083 38.7464 186.5 28.9131 186.5H27.4131C14.4131 186.5 5.49642 162 0.663086 113V98.5C0.99642 81.1667 5.91309 71.25 15.4131 68.75C18.0798 68.75 20.4964 71.3333 22.6631 76.5C17.8298 83.1667 15.4131 91 15.4131 100V102.25C15.4131 133.083 19.9131 156 28.9131 171C35.5798 166.167 40.4964 146.333 43.6631 111.5C43.6631 83.3333 45.7464 69.25 49.9131 69.25L52.4131 68.75C57.9131 68.75 60.6631 74.1667 60.6631 85L59.1631 112.5C59.1631 131 64.9131 150.25 76.4131 170.25C82.0798 175.917 87.8298 178.75 93.6631 178.75C103.163 178.75 113.33 172.833 124.163 161C131.83 150.833 135.663 138 135.663 122.5C135.663 88.1667 120.58 56.6667 90.4131 28C82.5798 21.6667 70.5798 16.5 54.4131 12.5L52.4131 7.74998C53.5798 2.58332 56.1631 -5.126e-06 60.1631 -5.126e-06ZM182.843 89.25C189.509 89.4167 200.759 101.083 216.593 124.25L217.093 128.5C217.093 133.167 205.676 136.75 182.843 139.25L182.093 140V141C185.593 156 189.259 163.5 193.093 163.5H196.093C201.426 163.5 209.509 157.75 220.343 146.25H221.843C225.176 146.25 227.759 148.667 229.593 153.5C229.593 157.5 222.593 164.417 208.593 174.25C204.926 176.417 200.509 178 195.343 179C181.843 179 172.426 166.333 167.093 141C159.426 139.833 155.593 136.667 155.593 131.5C155.593 127.833 158.426 125.417 164.093 124.25V125.25L166.593 124.25V118C166.593 98.8333 172.009 89.25 182.843 89.25ZM184.343 107.25H182.093L181.093 116.5V124.25H182.093C191.426 123.917 196.093 122.917 196.093 121.25C191.759 114.75 187.843 110.083 184.343 107.25ZM253.45 41.25C258.117 42.9167 260.45 45.5 260.45 49L262.95 144.25V175C262.95 180.667 260.534 183.5 255.7 183.5H252.45C249.45 181.5 247.95 179.167 247.95 176.5V147.5L245.7 48.5C245.7 44.3333 248.284 41.9167 253.45 41.25ZM306.448 94.25L316.698 92.75C320.865 92.75 323.198 95.3333 323.698 100.5C323.698 105 318.282 107.917 307.448 109.25C300.615 114.583 297.198 121.417 297.198 129.75V138C300.532 156.333 306.198 165.5 314.198 165.5H316.698C321.365 165.5 328.365 161.083 337.698 152.25H339.198C342.532 152.25 345.198 154.583 347.198 159.25C344.865 166.417 337.365 172.917 324.698 178.75C322.365 179.75 319.448 180.25 315.948 180.25C298.782 180.25 287.615 166.75 282.448 139.75V134.25C282.448 114.75 290.448 101.417 306.448 94.25ZM399.806 84.75C412.139 84.75 421.472 93.9167 427.806 112.25L428.806 117.5C428.806 135.333 420.472 153.583 403.806 172.25C397.139 178.417 390.389 181.5 383.556 181.5C373.556 181.5 366.472 175.75 362.306 164.25C360.806 158.917 360.056 154.25 360.056 150.25V147.25C360.056 120.917 369.639 100.917 388.806 87.25C392.139 85.5833 395.806 84.75 399.806 84.75ZM374.806 149.75C374.806 161.083 377.722 166.75 383.556 166.75C395.722 166.75 405.806 151.167 413.806 120V115.25C410.972 104.917 405.722 99.75 398.056 99.75C395.056 99.75 393.556 101.833 393.556 106C393.556 108.833 390.222 111.083 383.556 112.75C377.722 122.583 374.806 134.917 374.806 149.75ZM443.884 91.5C445.05 87.3333 447.717 85.25 451.884 85.25C456.05 85.25 458.8 89.4167 460.134 97.75H461.134L472.634 95.25C477.967 95.25 483.134 100.25 488.134 110.25H489.134C496.467 98.75 503.967 93 511.634 93C527.967 96 536.134 106.667 536.134 125L536.634 133.75L534.384 184.25V189C534.384 193.167 531.8 195.583 526.634 196.25C521.467 196.25 518.884 190.167 518.884 178L521.884 132.75C521.884 116.083 517.967 107.75 510.134 107.75C505.634 107.75 500.217 118.667 493.884 140.5C490.717 165.5 488.134 178 486.134 178C483.3 178 481.884 178.583 481.884 179.75C476.717 179.083 474.134 176.417 474.134 171.75L477.384 141.5C476.884 120.667 474.8 110.25 471.134 110.25H470.384C466.217 113.417 464.134 119.667 464.134 129V142.25L463.134 180.5C461.967 184.667 459.384 186.75 455.384 186.75C451.884 186.75 449.634 183.833 448.634 178L447.634 148.5L449.134 124.25C448.134 111.75 446.384 100.833 443.884 91.5ZM572.979 89.25C579.646 89.4167 590.896 101.083 606.729 124.25L607.229 128.5C607.229 133.167 595.813 136.75 572.979 139.25L572.229 140V141C575.729 156 579.396 163.5 583.229 163.5H586.229C591.563 163.5 599.646 157.75 610.479 146.25H611.979C615.313 146.25 617.896 148.667 619.729 153.5C619.729 157.5 612.729 164.417 598.729 174.25C595.063 176.417 590.646 178 585.479 179C571.979 179 562.563 166.333 557.229 141C549.563 139.833 545.729 136.667 545.729 131.5C545.729 127.833 548.563 125.417 554.229 124.25V125.25L556.729 124.25V118C556.729 98.8333 562.146 89.25 572.979 89.25ZM574.479 107.25H572.229L571.229 116.5V124.25H572.229C581.563 123.917 586.229 122.917 586.229 121.25C581.896 114.75 577.979 110.083 574.479 107.25Z" fill="black"/>
</svg>
